<svg height="512" viewBox="0 0 64 64" width="512" xmlns="http://www.w3.org/2000/svg"><g id="picture_file" data-name="picture file"><path d="m59 12h-56v44a2.006 2.006 0 0 0 2 2h54a2.006 2.006 0 0 0 2-2v-42a2.006 2.006 0 0 0 -2-2zm-27 42a19 19 0 1 1 19-19 19 19 0 0 1 -19 19z" fill="#78b9eb"/><circle cx="38" cy="28" fill="#78b9eb" r="3"/><g fill="#1a6fb0"><path d="m59 11h-27.465l-3.7-5.555a1 1 0 0 0 -.835-.445h-22a3 3 0 0 0 -3 3v48a3 3 0 0 0 3 3h54a3 3 0 0 0 3-3v-42a3 3 0 0 0 -3-3zm-54-4h21.465l2.667 4h-25.132v-3a1 1 0 0 1 1-1zm55 49a1 1 0 0 1 -1 1h-54a1 1 0 0 1 -1-1v-43h55a1 1 0 0 1 1 1z"/><path d="m32 15a20 20 0 1 0 20 20 20.023 20.023 0 0 0 -20-20zm0 38a18 18 0 1 1 18-18 18.021 18.021 0 0 1 -18 18z"/><path d="m38.479 34.718-4.838 2.956-4.9-5.35a1 1 0 0 0 -.7-.323.962.962 0 0 0 -.723.274l-9 8.572 1.371 1.453 8.262-7.869 10.312 11.245 1.474-1.352-4.718-5.147 3.881-2.377 5.449 4.669 1.3-1.518-6-5.142a1 1 0 0 0 -1.17-.091z"/><path d="m38 32a4 4 0 1 0 -4-4 4 4 0 0 0 4 4zm0-6a2 2 0 1 1 -2 2 2 2 0 0 1 2-2z"/></g></g></svg>